<svg width="36" height="36" viewBox="0 0 36 36" fill="none" xmlns="http://www.w3.org/2000/svg">
<circle cx="18" cy="18" r="18" fill="#BBC0C4"/>
<path d="M26.5601 11.6667C25.9734 9.84 21.8534 9 18.0001 9C14.1468 9 10.0001 9.84 9.44011 11.6667C9.38985 11.8127 9.36286 11.9656 9.36011 12.12V23.88C9.36286 24.0344 9.38985 24.1873 9.44011 24.3333C10.0268 26.16 14.1468 27 18.0001 27C21.8534 27 26.0001 26.16 26.5601 24.3333C26.6104 24.1873 26.6374 24.0344 26.6401 23.88V12.12C26.6374 11.9656 26.6104 11.8127 26.5601 11.6667V11.6667ZM25.3334 16.2333V18C25.3334 18.5333 22.8468 19.7867 18.0001 19.7867C13.1534 19.7867 10.6668 18.5333 10.6668 18V13.8867C12.0032 14.5347 13.447 14.9323 14.9268 15.06C15.9378 15.1807 16.9552 15.2408 17.9734 15.24C18.9917 15.2408 20.0091 15.1807 21.0201 15.06C22.518 14.9388 23.9805 14.541 25.3334 13.8867V16.2333ZM18.0001 10.3333C21.7268 10.3333 24.0468 11.08 24.9201 11.6667C25.1734 11.84 25.3068 12 25.3068 12.12C25.3068 12.34 24.8868 12.6733 24.0668 13C22.1152 13.6633 20.0603 13.9704 18.0001 13.9067C15.9399 13.9704 13.885 13.6633 11.9334 13C11.1134 12.6667 10.6668 12.34 10.6668 12.12C10.6668 12 10.8001 11.84 11.0534 11.6667C11.9534 11.08 14.2734 10.3333 18.0001 10.3333ZM18.0001 25.6667C14.2734 25.6667 11.9534 24.92 11.0801 24.3333C10.8268 24.16 10.6934 24 10.6934 23.88V19.7667C12.0299 20.4147 13.4737 20.8123 14.9534 20.94C15.9645 21.0607 16.9819 21.1208 18.0001 21.12C19.0183 21.1208 20.0357 21.0607 21.0468 20.94C22.5356 20.8155 23.9888 20.4178 25.3334 19.7667V23.88C25.3334 24 25.2001 24.16 24.9468 24.3333C24.0468 24.92 21.7268 25.6667 18.0001 25.6667Z" fill="white"/>
</svg>
