<svg width="56" height="56" viewBox="0 0 56 56" fill="none" xmlns="http://www.w3.org/2000/svg">
<path d="M28 56C43.464 56 56 43.464 56 28C56 12.536 43.464 0 28 0C12.536 0 0 12.536 0 28C0 43.464 12.536 56 28 56Z" fill="#BBC0C4"/>
<path d="M41.3161 18.1482C40.4034 15.3067 33.9946 14 28.0005 14C22.0065 14 15.5561 15.3067 14.685 18.1482C14.6068 18.3753 14.5648 18.6132 14.5605 18.8533V37.1467C14.5648 37.3868 14.6068 37.6247 14.685 37.8518C15.5976 40.6933 22.0065 42 28.0005 42C33.9946 42 40.445 40.6933 41.3161 37.8518C41.3943 37.6247 41.4363 37.3868 41.4405 37.1467V18.8533C41.4363 18.6132 41.3943 18.3753 41.3161 18.1482ZM39.4079 25.2518V28C39.4079 28.8296 35.5398 30.7793 28.0005 30.7793C20.4612 30.7793 16.5932 28.8296 16.5932 28V21.6015C18.672 22.6095 20.9179 23.228 23.2198 23.4267C24.7925 23.6144 26.3751 23.7079 27.959 23.7067C29.543 23.7079 31.1256 23.6144 32.6983 23.4267C35.0284 23.2381 37.3034 22.6193 39.4079 21.6015V25.2518ZM28.0005 16.074C33.7976 16.074 37.4065 17.2356 38.765 18.1482C39.159 18.4178 39.3665 18.6667 39.3665 18.8533C39.3665 19.1956 38.7132 19.714 37.4376 20.2222C34.4018 21.254 31.2053 21.7317 28.0005 21.6326C24.7958 21.7317 21.5993 21.254 18.5634 20.2222C17.2879 19.7038 16.5932 19.1956 16.5932 18.8533C16.5932 18.6667 16.8005 18.4178 17.1946 18.1482C18.5946 17.2356 22.2034 16.074 28.0005 16.074ZM28.0005 39.926C22.2034 39.926 18.5946 38.7644 17.2361 37.8518C16.8421 37.5822 16.6346 37.3333 16.6346 37.1467V30.7482C18.7136 31.7562 20.9595 32.3747 23.2612 32.5733C24.834 32.7611 26.4167 32.8546 28.0005 32.8533C29.5844 32.8546 31.167 32.7611 32.7398 32.5733C35.0558 32.3797 37.3163 31.761 39.4079 30.7482V37.1467C39.4079 37.3333 39.2005 37.5822 38.8065 37.8518C37.4065 38.7644 33.7976 39.926 28.0005 39.926Z" fill="white"/>
</svg>
