<svg width="62" height="62" viewBox="0 0 62 62" fill="none" xmlns="http://www.w3.org/2000/svg">
<path d="M31 59C46.464 59 59 46.464 59 31C59 15.536 46.464 3 31 3C15.536 3 3 15.536 3 31C3 46.464 15.536 59 31 59Z" fill="#BBC0C4"/>
<path d="M31.2608 16C28.7904 15.9949 26.3872 16.804 24.4229 18.3021C22.4585 19.8002 21.0426 21.9038 20.3941 24.2876C19.7456 26.6713 19.9007 29.2023 20.8354 31.489C21.7699 33.7757 23.4321 35.6908 25.5646 36.9379V43.125C25.5646 43.4676 25.7007 43.7962 25.9428 44.0383C26.185 44.2805 26.5136 44.4166 26.8562 44.4166H27.7346C28.0427 45.0932 28.5392 45.6667 29.1643 46.0689C29.7896 46.4712 30.5173 46.6851 31.2608 46.6851C32.0042 46.6851 32.7319 46.4712 33.3572 46.0689C33.9825 45.6667 34.4788 45.0932 34.7871 44.4166H35.6653C36.008 44.4166 36.3365 44.2805 36.5787 44.0383C36.821 43.7962 36.9571 43.4676 36.9571 43.125V36.9379C39.0896 35.6908 40.7516 33.7757 41.6863 31.489C42.6209 29.2023 42.7759 26.6713 42.1274 24.2876C41.4789 21.9038 40.063 19.8002 38.0987 18.3021C36.1343 16.804 33.7312 15.9949 31.2608 16Z" stroke="white" stroke-width="2" stroke-miterlimit="10" stroke-linecap="round"/>
<path d="M26.0947 36.938H36.4281" stroke="white" stroke-width="2" stroke-miterlimit="10" stroke-linecap="round"/>
<path d="M26.0947 41.0325H36.4281" stroke="white" stroke-width="2" stroke-miterlimit="10" stroke-linecap="round"/>
<path d="M31.2612 35.8659V30.6993" stroke="white" stroke-width="2" stroke-miterlimit="10" stroke-linecap="round"/>
<path d="M31.261 30.6991L28.6777 28.1158" stroke="white" stroke-width="2" stroke-miterlimit="10" stroke-linecap="round"/>
<path d="M31.2612 30.6991L33.8446 28.1158" stroke="white" stroke-width="2" stroke-miterlimit="10" stroke-linecap="round"/>
</svg>
