<svg width="40" height="40" viewBox="0 0 40 40" fill="none" xmlns="http://www.w3.org/2000/svg">
<path d="M30.4166 11.6667H27.0833V13.3333H30.4166V11.6667Z" fill="#414143"/>
<path d="M24.5833 9.58334C24.3622 9.58334 24.1503 9.67114 23.994 9.82742C23.8377 9.9837 23.7499 10.1957 23.7499 10.4167V11.6667H9.58325V13.3333H23.7499V14.5833C23.7499 14.8044 23.8377 15.0163 23.994 15.1726C24.1503 15.3289 24.3622 15.4167 24.5833 15.4167C24.8043 15.4167 25.0162 15.3289 25.1725 15.1726C25.3288 15.0163 25.4166 14.8044 25.4166 14.5833V10.4167C25.4166 10.1957 25.3288 9.9837 25.1725 9.82742C25.0162 9.67114 24.8043 9.58334 24.5833 9.58334Z" fill="#414143"/>
<path d="M30.4166 26.6667H27.0833V28.3333H30.4166V26.6667Z" fill="#414143"/>
<path d="M24.5833 24.5833C24.3622 24.5833 24.1503 24.6711 23.994 24.8274C23.8377 24.9837 23.7499 25.1957 23.7499 25.4167V26.6667H9.58325V28.3333H23.7499V29.5833C23.7499 29.8044 23.8377 30.0163 23.994 30.1726C24.1503 30.3289 24.3622 30.4167 24.5833 30.4167C24.8043 30.4167 25.0162 30.3289 25.1725 30.1726C25.3288 30.0163 25.4166 29.8044 25.4166 29.5833V25.4167C25.4166 25.1957 25.3288 24.9837 25.1725 24.8274C25.0162 24.6711 24.8043 24.5833 24.5833 24.5833Z" fill="#414143"/>
<path d="M14.5833 17.0833C14.3622 17.0833 14.1503 17.1711 13.994 17.3274C13.8377 17.4837 13.7499 17.6957 13.7499 17.9167V19.1667H9.58325V20.8333H13.7499V22.0833C13.7499 22.3044 13.8377 22.5163 13.994 22.6726C14.1503 22.8289 14.3622 22.9167 14.5833 22.9167C14.8043 22.9167 15.0162 22.8289 15.1725 22.6726C15.3288 22.5163 15.4166 22.3044 15.4166 22.0833V17.9167C15.4166 17.6957 15.3288 17.4837 15.1725 17.3274C15.0162 17.1711 14.8043 17.0833 14.5833 17.0833Z" fill="#414143"/>
<path d="M30.4166 19.1667H17.0833V20.8333H30.4166V19.1667Z" fill="#414143"/>
</svg>
