<svg width="32" height="32" viewBox="0 0 32 32" fill="none" xmlns="http://www.w3.org/2000/svg">
<path d="M23.9527 15.6621C24.1773 15.6621 24.404 15.3336 24.404 15.1173C24.404 15.0233 24.3653 14.9458 24.31 14.8751L16.458 7.45212C16.114 7.17151 15.6707 7 15.1813 7C14.754 7 14.362 7.13809 14.04 7.35564L6.152 14.8304L6.11467 14.889C6.04533 14.9628 6 15.0738 6 15.1797C6 15.4111 6.198 15.6627 6.442 15.6627H7.80933V22.5977C7.80933 23.6236 9.01333 24.49 10.0987 24.49H20.3173C21.4033 24.49 22.476 23.6236 22.476 22.597V15.6621H23.9527Z" stroke="#414143" stroke-width="2" stroke-miterlimit="10" stroke-linecap="round"/>
</svg>
