<?xml version="1.0" encoding="utf-8"?>
<!-- Generator: Adobe Illustrator 16.0.0, SVG Export Plug-In . SVG Version: 6.00 Build 0)  -->
<!DOCTYPE svg PUBLIC "-//W3C//DTD SVG 1.1//EN" "http://www.w3.org/Graphics/SVG/1.1/DTD/svg11.dtd">
<svg version="1.1" xmlns="http://www.w3.org/2000/svg" xmlns:xlink="http://www.w3.org/1999/xlink" x="0px" y="0px"
	 width="239.512px" height="48.554px" viewBox="0 0 239.512 48.554" enable-background="new 0 0 239.512 48.554"
	 xml:space="preserve">
<g id="레이어_1">
	<g>
		<rect x="46.445" y="10.604" fill="#414143" width="7.297" height="7.297"/>
		<path fill="#414143" d="M74.654,10.604c-10.463,0-18.975,8.512-18.975,18.975s8.512,18.975,18.975,18.975
			c4.202,0,8.348-1.457,11.674-4.055v4.055h7.301V29.579C93.629,19.116,85.117,10.604,74.654,10.604z M74.654,17.905
			c6.437,0,11.674,5.238,11.674,11.674c0,6.438-5.237,11.674-11.674,11.674c-6.436,0-11.672-5.236-11.672-11.674
			C62.982,23.144,68.219,17.905,74.654,17.905z"/>
		<rect x="136.764" y="1.104" fill="#414143" width="7.303" height="47.449"/>
		<rect x="36.27" y="1.104" fill="#414143" width="7.301" height="47.449"/>
		<rect x="178.1" y="10.604" fill="#4852E7" width="6.954" height="37.949"/>
		<path fill="#4852E7" d="M208.9,10.581c-10.469,0-18.987,8.518-18.987,18.986s8.519,18.986,18.987,18.986
			s18.986-8.518,18.986-18.986S219.369,10.581,208.9,10.581z M208.9,41.265c-6.448,0-11.699-5.248-11.699-11.697
			c0-6.451,5.251-11.699,11.699-11.699c6.451,0,11.699,5.248,11.699,11.699C220.6,36.017,215.352,41.265,208.9,41.265z"/>
		<rect x="232.561" y="10.604" fill="#4852E7" width="6.951" height="37.949"/>
		<path fill="#414143" d="M10.5,17.905h22.77v-7.301H10.5c-5.538,0-10.043,4.504-10.043,10.041S4.962,30.687,10.5,30.687h4.486
			c2.913,0,5.283,2.369,5.283,5.283c0,2.912-2.37,5.283-5.283,5.283H0.457v7.301h14.529c6.938,0,12.584-5.646,12.584-12.584
			c0-6.939-5.646-12.584-12.584-12.584H10.5c-1.512,0-2.742-1.23-2.742-2.74C7.758,19.134,8.988,17.905,10.5,17.905z"/>
		<path fill="#414143" d="M153.68,27.388l11.866-11.867l-4.84-4.84L148.84,22.546c-3.926,3.926-3.926,10.314,0,14.242l11.768,11.766
			l4.838-4.84L153.68,31.948C152.424,30.69,152.424,28.644,153.68,27.388z"/>
		<path fill="#414143" d="M125.082,37.249c-2.222,2.545-5.422,4.004-8.779,4.004c-6.436,0-11.674-5.236-11.674-11.674
			c0-6.436,5.238-11.674,11.674-11.674c3.355,0,6.555,1.459,8.779,4.004l2.402,2.748l5.496-4.805l-2.402-2.748
			c-3.611-4.131-8.814-6.5-14.275-6.5c-10.463,0-18.975,8.512-18.975,18.975s8.512,18.975,18.975,18.975
			c5.461,0,10.664-2.369,14.275-6.5l2.402-2.748l-5.496-4.805L125.082,37.249z"/>
	</g>
</g>
<g id="레이어_2">
</g>
</svg>
